<svg xmlns="http://www.w3.org/2000/svg" id="prefix__emoji" width="26.083" height="26.082" viewBox="0 0 26.083 26.082">
    <defs>
        <style>
            .prefix__cls-1{fill:#08f}
        </style>
    </defs>
    <path id="prefix__Path_32" d="M22.263 3.82a13.042 13.042 0 0 0-16.6-1.531.509.509 0 1 0 .577.84 12.021 12.021 0 1 1-3.112 3.11.509.509 0 0 0-.84-.577 13.042 13.042 0 0 0 19.975 16.6 13.041 13.041 0 0 0 0-18.443zm0 0" class="prefix__cls-1" data-name="Path 32"/>
    <path id="prefix__Path_33" d="M72.558 73.07a.509.509 0 1 0-.36-.87.509.509 0 0 0 .36.869zm0 0" class="prefix__cls-1" data-name="Path 33" transform="translate(-68.378 -68.38)"/>
    <path id="prefix__Path_34" d="M157 318.253a.509.509 0 0 0-.984.264 5.256 5.256 0 0 0 10.154 0 .509.509 0 0 0-.984-.264 4.237 4.237 0 0 1-8.185 0zm0 0" class="prefix__cls-1" data-name="Path 34" transform="translate(-148.05 -301.682)"/>
    <path id="prefix__Path_35" d="M291.873 214.534a1.343 1.343 0 0 1 2.6 0 .51.51 0 0 0 .492.378.515.515 0 0 0 .132-.018.509.509 0 0 0 .36-.624 2.362 2.362 0 0 0-4.563 0 .509.509 0 0 0 .984.264zm0 0" class="prefix__cls-1" data-name="Path 35" transform="translate(-276.054 -201.693)"/>
    <path id="prefix__Path_36" d="M133.166 212.52a2.365 2.365 0 0 0-2.281 1.751.509.509 0 0 0 .984.264 1.343 1.343 0 0 1 2.6 0 .509.509 0 0 0 .984-.264 2.366 2.366 0 0 0-2.282-1.751zm0 0" class="prefix__cls-1" data-name="Path 36" transform="translate(-124.201 -201.694)"/>
</svg>
