<svg xmlns="http://www.w3.org/2000/svg" id="prefix__emoji_1_" width="26.083" height="26.082" data-name="emoji (1)" viewBox="0 0 26.083 26.082">
    <defs>
        <style>
            .prefix__cls-1{fill:#00c853}
        </style>
    </defs>
    <path id="prefix__Path_27" d="M22.263 3.82a13.042 13.042 0 0 0-16.6-1.531.51.51 0 0 0 .577.84 12.021 12.021 0 1 1-3.112 3.11.509.509 0 0 0-.84-.577 13.042 13.042 0 0 0 19.975 16.6 13.041 13.041 0 0 0 0-18.443zm0 0" class="prefix__cls-1" data-name="Path 27"/>
    <path id="prefix__Path_28" d="M72.557 73.071a.509.509 0 1 0-.377-.852.509.509 0 0 0 .377.852zm0 0" class="prefix__cls-1" data-name="Path 28" transform="translate(-68.377 -68.381)"/>
    <path id="prefix__Path_29" d="M291.873 134.534a1.343 1.343 0 0 1 2.595 0 .509.509 0 0 0 .984-.264 2.362 2.362 0 0 0-4.563 0 .509.509 0 0 0 .984.264zm0 0" class="prefix__cls-1" data-name="Path 29" transform="translate(-276.054 -125.769)"/>
    <path id="prefix__Path_30" d="M131.869 134.534a1.343 1.343 0 0 1 2.595 0 .509.509 0 0 0 .984-.264 2.362 2.362 0 0 0-4.563 0 .509.509 0 1 0 .984.264zm0 0" class="prefix__cls-1" data-name="Path 30" transform="translate(-124.2 -125.769)"/>
    <path id="prefix__Path_31" d="M119.629 268.267a5.832 5.832 0 0 0 1.862 4.158 7.856 7.856 0 0 0 10.165.106 5.754 5.754 0 0 0 1.868-4.264.509.509 0 0 0-.509-.509h-12.877a.509.509 0 0 0-.509.509zm12.847.509c-.256 2.337-2.272 4.549-5.9 4.549-3.458 0-5.619-2.233-5.9-4.549zm0 0" class="prefix__cls-1" data-name="Path 31" transform="translate(-113.535 -254.118)"/>
</svg>
