<svg xmlns="http://www.w3.org/2000/svg" id="prefix__sad" width="26.083" height="26.082" viewBox="0 0 26.083 26.082">
    <defs>
        <style>
            .prefix__cls-1{fill:#bfbfbf}
        </style>
    </defs>
    <path id="prefix__Path_37" d="M22.263 3.82a13.042 13.042 0 0 0-16.6-1.531.51.51 0 0 0 .577.84 12.021 12.021 0 1 1-3.112 3.11.509.509 0 0 0-.84-.577 13.042 13.042 0 0 0 19.975 16.6 13.041 13.041 0 0 0 0-18.443zm0 0" class="prefix__cls-1" data-name="Path 37"/>
    <path id="prefix__Path_38" d="M156.148 331.7a.51.51 0 0 0 .721.721 5.975 5.975 0 0 1 8.449 0 .509.509 0 0 0 .72-.721 6.994 6.994 0 0 0-9.89 0zm0 0" class="prefix__cls-1" data-name="Path 38" transform="translate(-148.052 -312.863)"/>
    <path id="prefix__Path_39" d="M157.015 238.038a1.019 1.019 0 1 0-1.015-1.019 1.02 1.02 0 0 0 1.015 1.019zm0 0" class="prefix__cls-1" data-name="Path 39" transform="translate(-148.049 -223.978)"/>
    <path id="prefix__Path_40" d="M316 237.019a1.019 1.019 0 1 0 1.023-1.019 1.02 1.02 0 0 0-1.023 1.019zm0 0" class="prefix__cls-1" data-name="Path 40" transform="translate(-299.906 -223.978)"/>
    <path id="prefix__Path_41" d="M134.7 175.809a3.069 3.069 0 0 1-3.069 0 .509.509 0 1 0-.509.882 4.088 4.088 0 0 0 4.088 0 .509.509 0 1 0-.509-.882zm0 0" class="prefix__cls-1" data-name="Path 41" transform="translate(-124.202 -166.788)"/>
    <path id="prefix__Path_42" d="M295.4 176a.509.509 0 0 0-.7-.186 3.069 3.069 0 0 1-3.07 0 .509.509 0 0 0-.509.882 4.088 4.088 0 0 0 4.089 0 .509.509 0 0 0 .19-.696zm0 0" class="prefix__cls-1" data-name="Path 42" transform="translate(-276.056 -166.788)"/>
    <path id="prefix__Path_43" d="M72.558 73.072a.509.509 0 1 0-.344-.885.509.509 0 0 0 .344.885zm0 0" class="prefix__cls-1" data-name="Path 43" transform="translate(-68.378 -68.382)"/>
</svg>
